<svg width="40" height="9" viewBox="0 0 40 9" fill="none" xmlns="http://www.w3.org/2000/svg">
<g clip-path="url(#clip0_509_79)">
<path d="M33.5014 9C37.0847 9 39.9998 6.98129 39.9998 4.49995C39.9998 2.01861 37.0847 0 33.5014 0C30.112 0 27.3219 1.80637 27.0298 4.1018H22.3527V3.1552L-0.000213623 3.1552V5.84446L22.3528 5.84446V4.89798H27.0299C27.3221 7.19352 30.112 9 33.5014 9ZM21.4896 5.04839L0.863079 5.04839V3.95161L21.4896 3.95161V5.04839ZM27.866 4.49995C27.866 2.45778 30.3942 0.796403 33.5015 0.796403C36.6088 0.796403 39.137 2.45778 39.137 4.49995C39.137 6.54222 36.6088 8.2037 33.5015 8.2037C30.3942 8.2037 27.866 6.54222 27.866 4.49995Z" fill="#DCCA87"/>
</g>
<defs>
<clipPath id="clip0_509_79">
<rect width="40" height="9" fill="white"/>
</clipPath>
</defs>
</svg>
